<?xml version="1.0" encoding="utf-8"?>
<!-- Generator: Adobe Illustrator 22.0.0, SVG Export Plug-In . SVG Version: 6.00 Build 0)  -->
<svg version="1.1" id="Слой_1" xmlns="http://www.w3.org/2000/svg" xmlns:xlink="http://www.w3.org/1999/xlink" x="0px" y="0px"
	 viewBox="0 0 1000 270" style="enable-background:new 0 0 1000 270;" xml:space="preserve">
<style type="text/css">
	.st0{fill:#FFEC00;}
	.st1{fill:#8CC798;}
	.st2{fill:#4FA26C;}
	.st3{fill:#009DE2;}
	.st4{fill:#A0D8F7;}
	.st5{fill:#FFCB00;}
	.st6{fill:#EE7C00;}
	.st7{fill:#006126;}
	.st8{fill:#FFFFFF;}
	.st9{display:none;}
	.st10{display:inline;fill-rule:evenodd;clip-rule:evenodd;fill:#FFFFFF;}
	.st11{display:inline;fill-rule:evenodd;clip-rule:evenodd;fill:#8CC798;}
	.st12{display:inline;fill-rule:evenodd;clip-rule:evenodd;fill:#4FA26C;}
	.st13{display:inline;fill-rule:evenodd;clip-rule:evenodd;fill:#009DE2;}
	.st14{display:inline;fill-rule:evenodd;clip-rule:evenodd;fill:#A0D8F7;}
	.st15{display:inline;fill-rule:evenodd;clip-rule:evenodd;fill:#FFEC00;}
	.st16{display:inline;}
	.st17{fill-rule:evenodd;clip-rule:evenodd;fill:#FFEC00;}
	.st18{fill-rule:evenodd;clip-rule:evenodd;fill:#FFCB00;}
	.st19{fill-rule:evenodd;clip-rule:evenodd;fill:#EE7C00;}
	.st20{display:inline;fill-rule:evenodd;clip-rule:evenodd;fill:#006126;}
</style>
<g>
	<path class="st0" d="M178.5,20.8c64.3,0,116.5,52.2,116.5,116.5s-52.2,116.5-116.5,116.5S62,201.6,62,137.3
		C62.1,72.9,114.2,20.8,178.5,20.8z"/>
	<path class="st1" d="M178.5,204.4c-93.8,0-169.7-28.9-169.7-46c0-17.2,39.8-28,97.2-39c-0.1,3.2-0.1,6.3-0.1,9.5
		c2.4,12.6,33.8,19.3,72.7,19.3s70.3-7.1,72.7-19.3c0-3.2,0-6.3-0.1-9.5c57.3,10.9,97.2,21.9,97.2,39
		C348.3,175.5,272.3,204.4,178.5,204.4z"/>
	<path class="st1" d="M244.5,199.6c-15.1,13.9-39,22.9-66,22.9c-26.9,0-50.9-9-65.9-22.9c20.2,3,42.6,4.8,65.9,4.8
		C201.9,204.4,224.3,202.6,244.5,199.6z"/>
	<path class="st2" d="M177,222.5c-26.3-0.3-49.6-9.2-64.3-22.9c10.6,1.5,21.8,2.7,33.4,3.6C148.2,206.2,156.6,216.3,177,222.5z"/>
	<path class="st3" d="M178.6,52c-37.9,0-69.9,29.5-72.6,67.4L106,123c2.1,10.7,33.8,19.3,72.7,19.3s70.6-8.4,72.7-19.3l-0.1-3.5
		C248.5,81.6,216.5,52,178.6,52z"/>
	<path class="st4" d="M229.1,136.6l0.7-0.1c6.1-1.6,20.1-6.1,21.6-13.4l-0.1-3.5c-1.8-24.8-16.4-47.3-38.8-59.1
		c-1.1-0.5-1.8-1-3.3-1.6c1.1,0.9,20,16.3,20,53V136.6L229.1,136.6z"/>
	<path class="st0" d="M106,123.1L106,123.1v5.9c2.4,12.6,33.8,19.3,72.7,19.3s70.3-7.1,72.7-19.3v-5.9
		c-2.1,10.7-33.8,19.3-72.7,19.3S108,133.8,106,123.1z"/>
	<g>
		<path class="st0" d="M178.6,164.4L178.6,164.4c6.5,0,11.7,5.3,11.7,11.7v0.1c-3.3,1.6-7.3,2.5-11.7,2.5c-4.4,0-8.4-0.9-11.7-2.5
			v-0.1C166.9,169.7,172.2,164.4,178.6,164.4z"/>
		<path class="st5" d="M166.9,176.3L166.9,176.3L166.9,176.3v-0.3l0,0c0.1-5.1,3.6-9.4,8.2-10.9l0.3-0.1l0,0l0,0l0.3-0.1l0.2-0.1
			h0.1l0.2-0.1h0.1h0.1l0.3-0.1l0.2-0.1h0.1h0.2h0.1h0.2h0.1h0.2l0,0h0.2l0,0c-0.1,0.1-5.1,3-6,8.4c-0.3,1.8-0.3,3.5-0.3,5
			C169.9,177.5,168.2,176.9,166.9,176.3z"/>
		<path class="st6" d="M190.3,176.3v3.4c-3.3,1.6-7.3,2.5-11.7,2.5c-4.4,0-8.4-0.9-11.7-2.5v-3.4c3.3,1.6,7.3,2.5,11.7,2.5
			C182.9,178.8,187.1,177.8,190.3,176.3z"/>
	</g>
	<g>
		<path class="st0" d="M112.5,158.4L112.5,158.4c6.5,0,11.7,5.3,11.7,11.7v0.1c-3.3,1.6-7.3,2.5-11.7,2.5s-8.4-0.9-11.7-2.5v-0.1
			C100.7,163.7,106.1,158.4,112.5,158.4z"/>
		<path class="st5" d="M100.7,170.2L100.7,170.2L100.7,170.2v-0.3l0,0c0.1-5.1,3.6-9.4,8.2-10.9l0.3-0.1l0,0l0,0l0.3-0.1l0.2-0.1
			h0.1l0.2-0.1h0.1h0.1l0.3-0.1h0.2h0.1h0.2h0.1h0.2h0.1h0.2l0,0h0.2l0,0c-0.1,0.1-5.1,3-6,8.4c-0.3,1.8-0.3,3.5-0.3,5
			C103.8,171.4,102.1,170.9,100.7,170.2z"/>
		<path class="st6" d="M124.2,170.2v3.4c-3.3,1.6-7.3,2.5-11.7,2.5s-8.4-0.9-11.7-2.5v-3.4c3.3,1.6,7.3,2.5,11.7,2.5
			C116.8,172.8,120.9,171.8,124.2,170.2z"/>
	</g>
	<g>
		<path class="st0" d="M241.3,158.4L241.3,158.4c6.5,0,11.7,5.3,11.7,11.7v0.1c-3.3,1.6-7.3,2.5-11.7,2.5c-4.4,0-8.4-0.9-11.7-2.5
			v-0.1C229.6,163.7,234.9,158.4,241.3,158.4z"/>
		<path class="st5" d="M229.6,170.2L229.6,170.2L229.6,170.2v-0.3l0,0c0.1-5.1,3.6-9.4,8.2-10.9l0.3-0.1l0,0l0,0l0.3-0.1l0.2-0.1
			h0.1l0.2-0.1h0.1h0.1l0.3-0.1h0.2h0.1h0.2h0.1h0.2h0.1h0.2l0,0h0.2l0,0c-0.1,0.1-5.1,3-6,8.4c-0.3,1.8-0.3,3.5-0.3,5
			C232.6,171.4,231.1,170.9,229.6,170.2z"/>
		<path class="st6" d="M253,170.2v3.4c-3.3,1.6-7.3,2.5-11.7,2.5c-4.4,0-8.4-0.9-11.7-2.5v-3.4c3.3,1.6,7.3,2.5,11.7,2.5
			C245.7,172.8,249.8,171.8,253,170.2z"/>
	</g>
	<g>
		<path class="st0" d="M286,139.9L286,139.9c6.5,0,11.7,5.3,11.7,11.7v0.1c-3.3,1.6-7.3,2.5-11.7,2.5c-4.4,0-8.4-0.9-11.7-2.5v-0.1
			C274.3,145.2,279.5,139.9,286,139.9z"/>
		<path class="st5" d="M274.3,151.7L274.3,151.7L274.3,151.7v-0.3l0,0c0.1-5.1,3.6-9.4,8.2-10.9l0.3-0.1l0,0l0,0l0.3-0.1l0.2-0.1
			h0.1l0.2-0.1h0.1l0,0l0.3-0.1l0.2-0.1h0.1h0.2h0.1h0.2h0.1h0.2l0,0h0.2l0,0c-0.1,0.1-5.1,3-6,8.4c-0.3,1.8-0.3,3.5-0.3,5
			C277.2,152.9,275.7,152.4,274.3,151.7z"/>
		<path class="st6" d="M297.7,151.7v3.4c-3.3,1.6-7.3,2.5-11.7,2.5c-4.4,0-8.4-0.9-11.7-2.5v-3.4c3.3,1.6,7.3,2.5,11.7,2.5
			C290.4,154.3,294.4,153.3,297.7,151.7z"/>
	</g>
	<path class="st2" d="M21.7,142.9c13.9-7.8,38.3-14.2,69.1-20.5c5.1-1,10.3-2.1,15.3-3v0.3c-0.1,3.1-0.1,6.2-0.1,9.3
		c2.1,10.9,26.3,17.4,58.1,18.8c3.5,0.2,7.1,0.3,10.7,0.4l0,0c-41.5,0.2-72.7,1.4-141.8,21.7C17.9,161.8,12.1,152.5,21.7,142.9z"/>
	<path class="st7" d="M178.5,204.4c-86.2,0-157.5-24.4-168.3-41.6c-0.9-1.4-1.2-2.7-1.4-3.7c0-0.2-0.1-0.4-0.1-0.5
		c0-5.8,4.6-10.9,12.8-15.4c-28,28,74.5,53,156.9,53s184.8-25.2,156.9-53c8.2,4.6,12.8,9.7,12.8,15.4c0,0.2,0,0.4-0.1,0.5
		c-0.1,1.1-0.5,2.3-1.4,3.7C336,180,264.8,204.4,178.5,204.4z"/>
	<g>
		<path class="st0" d="M69.1,139.9L69.1,139.9c6.5,0,11.7,5.3,11.7,11.7v0.1c-3.3,1.6-7.3,2.5-11.7,2.5s-8.4-0.9-11.7-2.5v-0.1
			C57.4,145.2,62.6,139.9,69.1,139.9z"/>
		<path class="st5" d="M57.4,151.7L57.4,151.7L57.4,151.7v-0.3l0,0c0.1-5.1,3.6-9.4,8.2-10.9l0.3-0.1l0,0l0,0l0.3-0.1l0.2-0.1h0.1
			l0.2-0.1h0.1H67l0.3-0.1l0.2-0.1h0.1h0.2H68h0.2h0.1h0.2l0,0h0.2l0,0c-0.1,0.1-5.1,3-6,8.4c-0.3,1.8-0.3,3.5-0.3,5
			C60.3,152.9,58.8,152.4,57.4,151.7z"/>
		<path class="st6" d="M80.8,151.7v3.4c-3.3,1.6-7.3,2.5-11.7,2.5s-8.4-0.9-11.7-2.5v-3.4c3.3,1.6,7.3,2.5,11.7,2.5
			C73.5,154.3,77.5,153.3,80.8,151.7z"/>
	</g>
</g>
<g>
	<polygon class="st8" points="423.9,161.4 393.1,161.4 393.1,146.3 421.8,146.3 421.8,134.7 393.1,134.7 393.1,121.5 423.2,121.5 
		423.2,110.1 377.4,110.1 377.4,173 423.9,173 	"/>
	<path class="st8" d="M523.1,110.1V173h15.6v-25.3h12.5c14.6,0,20.8-10.2,20.8-19c0-8.6-6.5-18.7-20.9-18.7L523.1,110.1L523.1,110.1
		z M538.8,121.5h5.6c8.4,0,11.5,2,11.5,7.3c0,4.7-2.5,7.3-9.7,7.3h-7.3L538.8,121.5L538.8,121.5z"/>
	<path class="st8" d="M586.2,110.1V173h15.6v-25.6h4.5c8.4,0,10.9,12,17.7,25.6h17.4c-8.9-18.5-10.8-26.3-17.3-29.4
		c7.2-3.3,10.8-8.4,10.8-15.4c0-9.4-7.7-18.1-20.6-18.1L586.2,110.1L586.2,110.1z M601.9,121.5h7.9c5.9,0,9,2.4,9,7.1
		c0,5.4-4.3,7.2-8.6,7.2h-8.3L601.9,121.5L601.9,121.5z"/>
	<polygon class="st8" points="707.5,161.4 676.8,161.4 676.8,146.3 705.5,146.3 705.5,134.7 676.8,134.7 676.8,121.5 707,121.5 
		707,110.1 661.1,110.1 661.1,173 707.5,173 	"/>
	<path class="st8" d="M773,114c-7.9-3.4-14.3-4.8-21.3-4.8c-14.6,0-24,7.2-24,18.1c0,22.7,32.1,18.8,32.1,29.1
		c0,3.7-3.3,5.8-9.2,5.8c-6.9,0-12.5-2.2-21.6-8.1v13.6c6.2,3.3,11.7,6.1,22.7,6.1c14,0,24.2-7,24.2-19c0-22-32.1-19.3-32.1-28.8
		c0-3.2,3.6-5.1,9.2-5.1c5.4,0,10.8,1.6,19.9,5.6L773,114L773,114z"/>
	<path class="st8" d="M839.5,114c-7.9-3.4-14.3-4.8-21.3-4.8c-14.6,0-24,7.2-24,18.1c0,22.7,32.1,18.8,32.1,29.1
		c0,3.7-3.3,5.8-9.2,5.8c-6.9,0-12.5-2.2-21.6-8.1v13.6c6.2,3.3,11.7,6.1,22.7,6.1c14,0,24.2-7,24.2-19c0-22-32.1-19.3-32.1-28.8
		c0-3.2,3.6-5.1,9.2-5.1c5.4,0,10.8,1.6,19.9,5.6V114H839.5z"/>
	<path class="st8" d="M930.8,160.1h-20.4c11.3-14.3,17.1-25.2,17.1-33c0-11.2-7.6-17.9-19.9-17.9c-6,0-10.8,1.6-17.6,6v13.1
		c5-4.9,10.7-7.9,15.1-7.9c4.7,0,8.4,4.2,8.4,9c0,4.9-1.6,9.5-6.8,17.4c-4.5,6.9-10.9,16.2-17.5,24.3v1.8h41.6V160.1L930.8,160.1z"
		/>
	<path class="st8" d="M986.1,109.2h-8.9l-29.7,38.2v10.1h24.5v15.4H986v-15.4h4.3v-10.1H986v-38.2H986.1z M972,130.2h0.2v17.2h-13.5
		L972,130.2z"/>
	<polygon class="st8" points="474,129.5 461.5,110.1 443.7,110.1 463.8,140.4 443,173 460.4,173 474,151.1 487.6,173 505.1,173 
		484.2,140.4 504.4,110.1 486.6,110.1 	"/>
</g>
<g class="st9">
	<path class="st10" d="M178.3,21.8c64.3,0,116.3,52.1,116.3,116.3c0,64.3-52.1,116.3-116.3,116.3C114.1,254.4,62,202.3,62,138.1
		C62,73.8,114.1,21.8,178.3,21.8z"/>
	<path class="st11" d="M178.3,205C84.8,205,8.9,176.2,8.9,159.1c0-17.1,39.8-28,97-38.9c-0.1,3.1-0.1,6.4-0.1,9.5
		c2.4,12.6,33.7,19.2,72.5,19.2c38.8,0,70.2-7.1,72.5-19.2c0-3.2,0-6.4-0.1-9.5c57.2,10.9,97,21.8,97,38.9
		C347.7,176.2,271.9,205,178.3,205z"/>
	<path class="st11" d="M244.2,200.3c-15,13.9-38.9,22.8-65.8,22.8c-26.9,0-50.8-9-65.8-22.8c20.2,3,42.5,4.7,65.8,4.7
		C201.7,205,223.9,203.2,244.2,200.3z"/>
	<path class="st12" d="M176.8,223.1c-26.3-0.3-49.5-9.2-64.3-22.8c10.6,1.5,21.8,2.8,33.3,3.6C148,206.9,156.4,216.9,176.8,223.1z"
		/>
	<path class="st13" d="M178.3,53c-37.8,0-69.7,29.5-72.4,67.3l-0.1,3.6c2.1,10.7,33.7,19.2,72.5,19.2c38.8,0,70.4-8.5,72.5-19.2
		l-0.1-3.6C248,82.5,216.2,53,178.3,53z"/>
	<path class="st14" d="M228.7,137.4l0.6-0.2c6.1-1.7,20.1-6.1,21.5-13.3l-0.1-3.6C249,95.5,234.4,73.1,212,61.4
		c-1.1-0.6-1.8-1-3.2-1.6c1.1,0.8,20,16.2,20,52.9V137.4z"/>
	<path class="st15" d="M105.9,123.9L105.9,123.9v5.9c2.4,12.6,33.7,19.2,72.5,19.2c38.8,0,70.2-7.1,72.5-19.2v-5.9
		c-2.1,10.7-33.7,19.2-72.5,19.2C139.6,143,107.9,134.5,105.9,123.9z"/>
	<g class="st16">
		<path class="st17" d="M178.3,165.1L178.3,165.1c6.4,0,11.7,5.3,11.7,11.7v0.1c-3.3,1.6-7.4,2.5-11.7,2.5c-4.3,0-8.4-0.9-11.7-2.5
			v-0.1C166.6,170.4,171.9,165.1,178.3,165.1z"/>
		<path class="st18" d="M166.6,176.9L166.6,176.9v-0.1l0-0.3v0c0.1-5.1,3.6-9.4,8.2-10.9l0.2-0.1l0,0l0,0l0.3-0.1l0.2-0.1l0.1,0
			l0.2,0l0.1,0l0,0l0.3,0l0.2,0l0.1,0l0.2,0l0.1,0l0.2,0l0.1,0l0.2,0l0,0l0.2,0l0,0c-0.1,0-5.1,2.9-6,8.4c-0.3,1.8-0.4,3.6-0.4,5
			C169.6,178.2,168.1,177.6,166.6,176.9z"/>
		<path class="st19" d="M190,176.9v3.4c-3.3,1.6-7.4,2.5-11.7,2.5c-4.3,0-8.4-0.9-11.7-2.5v-3.4c3.3,1.6,7.4,2.5,11.7,2.5
			C182.7,179.4,186.7,178.5,190,176.9z"/>
	</g>
	<g class="st16">
		<path class="st17" d="M112.4,159.1L112.4,159.1c6.4,0,11.7,5.3,11.7,11.7v0.1c-3.3,1.6-7.4,2.5-11.7,2.5c-4.3,0-8.4-0.9-11.7-2.5
			v-0.1C100.6,164.4,105.9,159.1,112.4,159.1z"/>
		<path class="st18" d="M100.6,170.9L100.6,170.9v-0.1l0-0.3v0c0.1-5.1,3.6-9.4,8.2-10.9l0.2-0.1l0,0l0,0l0.3-0.1l0.2-0.1l0.1,0
			l0.2-0.1l0.1,0l0,0l0.3,0l0.2,0l0.1,0l0.2,0l0.1,0l0.2,0l0.1,0l0.2,0l0,0l0.2,0h0c-0.1,0-5.1,2.9-6,8.4c-0.3,1.8-0.4,3.6-0.4,5
			C103.6,172.2,102.1,171.6,100.6,170.9z"/>
		<path class="st19" d="M124.1,170.9v3.4c-3.3,1.6-7.4,2.5-11.7,2.5c-4.3,0-8.4-0.9-11.7-2.5v-3.4c3.3,1.6,7.4,2.5,11.7,2.5
			C116.7,173.4,120.7,172.5,124.1,170.9z"/>
	</g>
	<g class="st16">
		<path class="st17" d="M241,159.1L241,159.1c6.4,0,11.7,5.3,11.7,11.7v0.1c-3.3,1.6-7.4,2.5-11.7,2.5c-4.3,0-8.4-0.9-11.7-2.5v-0.1
			C229.3,164.4,234.5,159.1,241,159.1z"/>
		<path class="st18" d="M229.3,170.9L229.3,170.9v-0.1l0-0.3v0c0.1-5.1,3.6-9.4,8.2-10.9l0.2-0.1l0,0l0,0l0.3-0.1l0.2-0.1l0.1,0
			l0.2-0.1l0.1,0l0,0l0.3,0l0.2,0l0.1,0l0.2,0l0.1,0l0.2,0l0.1,0l0.2,0l0,0l0.2,0h0c-0.1,0-5.1,2.9-6,8.4c-0.3,1.8-0.4,3.6-0.4,5
			C232.2,172.2,230.7,171.6,229.3,170.9z"/>
		<path class="st19" d="M252.7,170.9v3.4c-3.3,1.6-7.4,2.5-11.7,2.5c-4.3,0-8.4-0.9-11.7-2.5v-3.4c3.3,1.6,7.4,2.5,11.7,2.5
			C245.3,173.4,249.3,172.5,252.7,170.9z"/>
	</g>
	<g class="st16">
		<path class="st17" d="M285.6,140.7L285.6,140.7c6.4,0,11.7,5.3,11.7,11.7v0.1c-3.3,1.6-7.4,2.5-11.7,2.5c-4.3,0-8.4-0.9-11.7-2.5
			v-0.1C273.9,146,279.1,140.7,285.6,140.7z"/>
		<path class="st18" d="M273.9,152.5L273.9,152.5v-0.1l0-0.3v0c0.1-5.1,3.6-9.4,8.2-10.9l0.2-0.1l0,0l0,0l0.3-0.1l0.2-0.1l0.1,0
			l0.2,0l0.1,0l0,0l0.3,0l0.2,0l0.1,0l0.2,0l0.1,0l0.2,0l0.1,0l0.2,0l0,0l0.2,0l0,0c-0.1,0-5.1,2.9-6,8.4c-0.3,1.8-0.4,3.6-0.4,5
			C276.8,153.7,275.3,153.2,273.9,152.5z"/>
		<path class="st19" d="M297.3,152.5v3.4c-3.3,1.6-7.4,2.5-11.7,2.5c-4.3,0-8.4-0.9-11.7-2.5v-3.4c3.3,1.6,7.4,2.5,11.7,2.5
			C289.9,155,294,154.1,297.3,152.5z"/>
	</g>
	<path class="st12" d="M21.7,143.7c13.9-7.8,38.2-14.2,68.9-20.4c5.1-1,10.2-2,15.3-3v0.2c-0.1,3.1-0.1,6.2-0.1,9.3
		c2.1,11,26.2,17.4,58.1,18.8c3.5,0.2,7.1,0.3,10.7,0.4h0c-41.3,0.2-72.5,1.5-141.6,21.6C18,162.5,12.2,153.3,21.7,143.7z"/>
	<path class="st20" d="M178.3,205c-86.1,0-157.1-24.4-168-41.6c-0.8-1.4-1.3-2.7-1.4-3.7c0-0.2,0-0.4,0-0.6
		c0-5.8,4.6-10.9,12.8-15.5c-27.9,27.9,74.4,52.9,156.6,52.9c82.2,0,184.5-25.1,156.6-52.9c8.2,4.6,12.8,9.7,12.8,15.5
		c0,0.2,0,0.4,0,0.6c-0.1,1-0.6,2.3-1.4,3.7C335.5,180.7,264.4,205,178.3,205z"/>
	<g class="st16">
		<path class="st17" d="M69,140.7L69,140.7c6.4,0,11.7,5.3,11.7,11.7v0.1c-3.3,1.6-7.4,2.5-11.7,2.5c-4.3,0-8.4-0.9-11.7-2.5v-0.1
			C57.3,146,62.6,140.7,69,140.7z"/>
		<path class="st18" d="M57.3,152.5L57.3,152.5v-0.1l0-0.3v0c0.1-5.1,3.6-9.4,8.2-10.9l0.2-0.1l0,0l0,0l0.3-0.1l0.2-0.1l0.1,0l0.2,0
			l0.1,0l0,0l0.3,0l0.2,0l0.1,0l0.2,0l0.1,0l0.2,0l0.1,0l0.2,0l0,0l0.2,0l0,0c-0.1,0-5.1,2.9-6,8.4c-0.3,1.8-0.4,3.6-0.4,5
			C60.3,153.7,58.8,153.2,57.3,152.5z"/>
		<path class="st19" d="M80.8,152.5v3.4c-3.3,1.6-7.4,2.5-11.7,2.5c-4.3,0-8.4-0.9-11.7-2.5v-3.4c3.3,1.6,7.4,2.5,11.7,2.5
			C73.4,155,77.4,154.1,80.8,152.5z"/>
	</g>
</g>
</svg>
